<svg xmlns="http://www.w3.org/2000/svg" version="1.1" xmlns:xlink="http://www.w3.org/1999/xlink" viewBox="0 0 9.330452890340798 3.4225719809940807"><g transform="matrix(0.7630601356981118,0,0,0.7630601356981118,2.75019444450018,1.2820646641668525)"><g transform="matrix(1,0,0,1,0,0)" clip-path="url(#SvgjsClipPath55985)"><g clip-path="url(#bf26aa8f3-aec4-4b13-9b9e-059e744ddad1dfffe6dd-7eab-47e0-8779-8ba7b35b4daa)"><path d=" M -1.0120883363737883 0.3543575138298326 C -0.9547637029189127 0.3543575138298326 -0.9004587188049057 0.3415727081527682 -0.8517303451671802 0.31880357804218684 L -0.7533482214808177 0.5495145284888694 C -0.8343525060409837 0.5873456462276558 -0.9226854521431704 0.6068994428612879 -1.0120883363737883 0.6067904579221179 C -1.0554105636109266 0.6067904579221179 -1.0976856543830862 0.6022853359216285 -1.1384509204848117 0.593713428115292 C -1.184719741030378 0.5839969758007231 -1.2290404007108682 0.569044841161261 -1.2708040992559453 0.5495388804996828 L -1.1724463275803962 0.31880357804218673 C -1.1222487161195587 0.3422739761489193 -1.0675018436555646 0.3544122348880887 -1.0120883363737883 0.3543575138298326" fill="#aac527" transform="matrix(1,0,0,1,0,0)" fill-rule="nonzero"></path></g><g clip-path="url(#bf26aa8f3-aec4-4b13-9b9e-059e744ddad1dfffe6dd-7eab-47e0-8779-8ba7b35b4daa)"><path d=" M -1.2559737246705507 0.5347328579251014 C -1.386312244983062 0.4737491247192318 -1.4911104429563065 0.3689509267459874 -1.5520941761621763 0.23861240643347592" fill="none" transform="matrix(1,0,0,1,0,0)" fill-rule="nonzero" stroke-dasharray="none" stroke-miterlimit="4" stroke-linejoin="miter" stroke-linecap="butt" stroke-width="0.03952331355023915" stroke="#aac527"></path></g><g clip-path="url(#bf26aa8f3-aec4-4b13-9b9e-059e744ddad1dfffe6dd-7eab-47e0-8779-8ba7b35b4daa)"><path d=" M -0.7681785960662124 -0.5453275256733008 C -0.6378465874239407 -0.4843464393124379 -0.5330499492627556 -0.37955841929583833 -0.47205814457458684 -0.24923142619248878" fill="#d4d6c9" transform="matrix(1,0,0,1,0,0)" fill-rule="nonzero" stroke-dasharray="none" stroke-miterlimit="4" stroke-linejoin="miter" stroke-linecap="butt" stroke-width="0.03952331355023915" stroke="#aac527"></path></g><g clip-path="url(#bf26aa8f3-aec4-4b13-9b9e-059e744ddad1dfffe6dd-7eab-47e0-8779-8ba7b35b4daa)"><path d=" M -1.336262304322515 -0.1656796770915212 C -1.3590314344330965 -0.1169756554646092 -1.371767536088534 -0.06262196732897529 -1.371767536088534 -0.005297333874099697 C -1.371767536088534 0.05202729958077579 -1.3590314344330965 0.10635663570559617 -1.336262304322515 0.1550850093433218 L -1.5669489027583843 0.2534184290080572 C -1.604755957660266 0.17241647516661374 -1.624292815853065 0.08409324902180637 -1.6241761281700058 -0.005297333874099586 C -1.624176128170006 -0.09778627094360581 -1.6036473830542626 -0.1854535098720475 -1.5669489027583843 -0.2640374487670702 Z" fill="#aac527" transform="matrix(1,0,0,1,0,0)" fill-rule="nonzero"></path></g><g clip-path="url(#bf26aa8f3-aec4-4b13-9b9e-059e744ddad1dfffe6dd-7eab-47e0-8779-8ba7b35b4daa)"><path d=" M -0.6879143684250614 -0.1656796770915212 L -0.45722776998919223 -0.2640374487670702 C -0.41941798627651505 -0.18302779606249286 -0.39988108103034214 -0.09469604361969164 -0.4000005445775705 -0.005297333874099808 C -0.4000005445775705 0.0871672511845929 -0.42052928969331393 0.17483449011303465 -0.45722776998919223 0.2534184290080572 L -0.6879143684250614 0.1550850093433218 C -0.6644595483427568 0.10487535582403651 -0.6523379835687522 0.05012046858014496 -0.6524091366590425 -0.005297333874099586 C -0.6524091366590424 -0.06262196732897529 -0.6651452383144799 -0.1169756554646092 -0.6879143684250614 -0.1656796770915212" fill="#aac527" transform="matrix(1,0,0,1,0,0)" fill-rule="nonzero"></path></g><g clip-path="url(#bf26aa8f3-aec4-4b13-9b9e-059e744ddad1dfffe6dd-7eab-47e0-8779-8ba7b35b4daa)"><path d=" M -1.0120883363737883 -0.36497653358884535 C -1.0694129698286639 -0.36497653358884535 -1.1237179539426707 -0.35219172791178094 -1.1724463275803962 -0.32942259780119953 L -1.2708040992559453 -0.5601335482478821 C -1.1898093141781565 -0.5979672390165779 -1.101483699079083 -0.6175212532026679 -1.0120883363737878 -0.6174094776811307 C -0.9196237513150957 -0.6174094776811306 -0.8319565123866538 -0.5968563805545738 -0.7533725734916311 -0.5601335482478821 L -0.8517303451671802 -0.32942259780119953 C -0.9019279566280175 -0.3528929959079319 -0.9566748290920115 -0.36503125464710146 -1.0120883363737878 -0.36497653358884524" fill="#aac527" transform="matrix(1,0,0,1,0,0)" fill-rule="nonzero"></path></g><g clip-path="url(#bf26aa8f3-aec4-4b13-9b9e-059e744ddad1dfffe6dd-7eab-47e0-8779-8ba7b35b4daa)"><path d=" M -1.2529297233188685 0.5576968041221906 L -1.2529297233188685 1.5785818014438946 L -1.0224135889586936 1.7226482974163004 L -0.7704676850826775 1.5106396912743523 L -0.8136925042765619 1.4612538133446638 L -0.8136925042765619 1.3761678875624477 L -0.7791126489214543 1.3462879702943373 L -0.8260389737589842 1.3031118551220797 L -0.7766530958292952 1.2616160286959508 L -0.7766530958292952 1.153712268781527 L -0.8173940099202073 1.0922721454991777 L -0.7717096376341637 1.009256140636106 L -0.8470547590909967 0.9578003417872734 L -0.8470547590909967 0.8515525186081647 L -0.7704676850826775 0.8515525186081647 L -0.7704676850826775 0.5593527408575056" fill="none" transform="matrix(1,0,0,1,0,0)" fill-rule="nonzero" stroke-dasharray="none" stroke-miterlimit="4" stroke-linejoin="round" stroke-linecap="round" stroke-width="0.03952331355023915" stroke="#aac527"></path></g><g clip-path="url(#bf26aa8f3-aec4-4b13-9b9e-059e744ddad1dfffe6dd-7eab-47e0-8779-8ba7b35b4daa)"><path d=" M -1.0730414194398687 0.5912538750231329 L -0.978165985310644 0.5912538750231329 L -0.978165985310644 1.7002200954571078 L -1.0730414194398687 1.7002200954571078 Z" fill="#aac527" transform="matrix(1,0,0,1,0,0)" fill-rule="nonzero"></path></g></g><g><path d=" M 0.24 0.034499999999999975 C 0.24 0.034499999999999975 0.24 0 0.195 0 C 0.15 0 0.15 0.034499999999999975 0.15 0.034499999999999975 L 0.15 1.0905 C 0.15 1.0905 0.15 1.125 0.195 1.125 C 0.24 1.125 0.24 1.0905 0.24 1.0905 L 0.24 0.6675 L 0.3345 0.5745 C 0.5145 0.6615 0.7515000000000001 1.125 0.9525 1.125 C 1.0065 1.125 1.0395 1.0995 1.0395 1.068 C 1.0395 1.05 1.0275 1.0395 1.0125 1.0395 C 1.0065 1.0395 0.996 1.044 0.9645 1.044 C 0.8175 1.044 0.594 0.6405000000000001 0.393 0.5145 L 0.837 0.07650000000000001 C 0.837 0.07650000000000001 0.8565 0.05699999999999994 0.8565 0.03600000000000003 C 0.8565 0.014999999999999902 0.8445 0 0.8145 0 C 0.7935 0 0.783 0.014999999999999902 0.783 0.014999999999999902 L 0.24 0.564 M 1.30503369140625 1.047 L 1.30503369140625 0.7875 L 1.72353369140625 0.7875 C 1.72353369140625 0.7875 1.7490336914062499 0.7815 1.7490336914062499 0.7484999999999999 C 1.7490336914062499 0.7155 1.72353369140625 0.708 1.72353369140625 0.708 L 1.30503369140625 0.708 L 1.30503369140625 0.24749999999999994 L 1.80153369140625 0.24749999999999994 C 1.80153369140625 0.24749999999999994 1.8270336914062502 0.24 1.8270336914062502 0.20699999999999996 C 1.8270336914062502 0.1755 1.80153369140625 0.16949999999999998 1.80153369140625 0.16949999999999998 L 1.24503369140625 0.16949999999999998 C 1.23003369140625 0.16949999999999998 1.21953369140625 0.1785 1.21953369140625 0.19499999999999995 L 1.21953369140625 1.0995 C 1.21953369140625 1.1145 1.23003369140625 1.125 1.24503369140625 1.125 L 1.8375336914062501 1.125 C 1.8375336914062501 1.125 1.86303369140625 1.119 1.86303369140625 1.086 C 1.86303369140625 1.0545 1.8375336914062501 1.047 1.8375336914062501 1.047 M 2.35948828125 0.7395 L 2.35948828125 1.0995 C 2.35948828125 1.1115 2.36998828125 1.125 2.40148828125 1.125 C 2.43598828125 1.125 2.44498828125 1.1115 2.44498828125 1.0995 L 2.44498828125 0.7395 L 2.79298828125 0.21299999999999997 C 2.79298828125 0.21299999999999997 2.80048828125 0.20399999999999996 2.80048828125 0.19799999999999995 C 2.80048828125 0.17999999999999994 2.77948828125 0.16949999999999998 2.75848828125 0.16949999999999998 C 2.73598828125 0.16949999999999998 2.72398828125 0.1815 2.72398828125 0.1815 L 2.40598828125 0.6585 L 2.09698828125 0.1995 C 2.08348828125 0.1785 2.06548828125 0.16949999999999998 2.04298828125 0.16949999999999998 C 2.01898828125 0.16949999999999998 2.00548828125 0.18299999999999994 2.00548828125 0.1965 C 2.00548828125 0.20850000000000002 2.01298828125 0.22199999999999998 2.01298828125 0.22199999999999998 M 3.0494809570312498 0 C 3.02248095703125 0 3.01798095703125 0.02400000000000002 3.01798095703125 0.04800000000000004 L 3.01798095703125 1.0905 C 3.01798095703125 1.116 3.02698095703125 1.125 3.05398095703125 1.125 C 3.08548095703125 1.125 3.10048095703125 1.116 3.10048095703125 1.0905 L 3.10048095703125 0.17399999999999993 L 3.8594809570312503 1.095 C 3.87298095703125 1.1115 3.88048095703125 1.125 3.90298095703125 1.125 C 3.92698095703125 1.125 3.93298095703125 1.1115 3.93298095703125 1.074 L 3.93298095703125 0.034499999999999975 C 3.93298095703125 0.01649999999999996 3.9299809570312503 0 3.89398095703125 0 C 3.85498095703125 0 3.85048095703125 0.01649999999999996 3.85048095703125 0.034499999999999975 L 3.85048095703125 0.954 L 3.09448095703125 0.026999999999999913 C 3.07348095703125 0.0015000000000000568 3.0614809570312502 0 3.0494809570312498 0 M 4.303477294921875 1.047 L 4.303477294921875 0.7875 L 4.721977294921875 0.7875 C 4.721977294921875 0.7875 4.747477294921875 0.7815 4.747477294921875 0.7484999999999999 C 4.747477294921875 0.7155 4.721977294921875 0.708 4.721977294921875 0.708 L 4.303477294921875 0.708 L 4.303477294921875 0.24749999999999994 L 4.799977294921875 0.24749999999999994 C 4.799977294921875 0.24749999999999994 4.825477294921875 0.24 4.825477294921875 0.20699999999999996 C 4.825477294921875 0.1755 4.799977294921875 0.16949999999999998 4.799977294921875 0.16949999999999998 L 4.243477294921875 0.16949999999999998 C 4.228477294921875 0.16949999999999998 4.217977294921875 0.1785 4.217977294921875 0.19499999999999995 L 4.217977294921875 1.0995 C 4.217977294921875 1.1145 4.228477294921875 1.125 4.243477294921875 1.125 L 4.835977294921875 1.125 C 4.835977294921875 1.125 4.861477294921875 1.119 4.861477294921875 1.086 C 4.861477294921875 1.0545 4.835977294921875 1.047 4.835977294921875 1.047 M 5.122431884765625 0.9179999999999999 C 5.122431884765625 0.8775 5.149431884765625 0.8534999999999999 5.149431884765625 0.8355 C 5.149431884765625 0.8205 5.1359318847656255 0.81 5.120931884765625 0.81 C 5.096931884765625 0.81 5.041431884765625 0.8474999999999999 5.041431884765625 0.933 C 5.041431884765625 1.068 5.180931884765625 1.14 5.389431884765625 1.14 C 5.626431884765625 1.14 5.755431884765625 1.011 5.755431884765625 0.858 C 5.755431884765625 0.5445 5.158431884765625 0.6495 5.158431884765625 0.399 C 5.158431884765625 0.28200000000000003 5.282931884765625 0.22650000000000003 5.410431884765625 0.22650000000000003 C 5.531931884765625 0.22650000000000003 5.606931884765625 0.276 5.606931884765625 0.3405 C 5.606931884765625 0.39149999999999996 5.584431884765625 0.39749999999999996 5.584431884765625 0.4155 C 5.584431884765625 0.42599999999999993 5.591931884765625 0.4365 5.614431884765625 0.4365 C 5.641431884765625 0.4365 5.690931884765625 0.396 5.690931884765625 0.33599999999999997 C 5.690931884765625 0.237 5.576931884765625 0.15300000000000002 5.410431884765625 0.15300000000000002 C 5.209431884765625 0.15300000000000002 5.074431884765625 0.25949999999999995 5.074431884765625 0.41400000000000003 C 5.074431884765625 0.7184999999999999 5.671431884765625 0.615 5.671431884765625 0.87 C 5.671431884765625 0.9855 5.557431884765625 1.0635 5.386431884765625 1.0635 C 5.222931884765625 1.0635 5.122431884765625 1.0095 5.122431884765625 0.9179999999999999 M 6.573008056640625 0.246 C 6.573008056640625 0.246 6.598508056640625 0.24 6.598508056640625 0.20699999999999996 C 6.598508056640625 0.1755 6.573008056640625 0.16949999999999998 6.573008056640625 0.16949999999999998 L 5.910008056640625 0.16949999999999998 C 5.910008056640625 0.16949999999999998 5.884508056640625 0.1755 5.884508056640625 0.20699999999999996 C 5.884508056640625 0.24 5.910008056640625 0.246 5.910008056640625 0.246 L 6.199508056640625 0.246 L 6.199508056640625 1.0995 C 6.199508056640625 1.113 6.208508056640625 1.125 6.241508056640625 1.125 C 6.274508056640625 1.125 6.285008056640625 1.113 6.285008056640625 1.0995 L 6.285008056640625 0.246" fill="#f9f9f9" fill-rule="nonzero"></path></g><g></g></g><defs><clipPath id="SvgjsClipPath55985"><path d=" M -1.6241766478076824 -0.6174099541914204 h 1.2241766478076825 v 2.359819908382841 h -1.2241766478076825 Z"></path></clipPath><clipPath id="bf26aa8f3-aec4-4b13-9b9e-059e744ddad1dfffe6dd-7eab-47e0-8779-8ba7b35b4daa"><path d=" M -1.648528138983462 -0.6417371364837733 L -0.37564853376411445 -0.6417371364837733 L -0.37564853376411445 1.7667741410102833 L -1.648528138983462 1.7667741410102833 Z"></path></clipPath></defs></svg>